#!OML:ASF E:\Mandelcareful walks\Project 1\Capture day 1\Session 1\Subject1.ASF
:FULLY-SPECIFIED
:DEGREES
650
root 31.9159 15.1694 -2.76478 -163.884 -19.1366 171.457
lowerback 38.6332 0.586249 -1.02227
upperback 6.44277 -1.95433 -2.48752
thorax -11.8518 -1.61906 -1.15555
lowerneck -27.7807 -3.30055 -9.20548
upperneck 11.7748 -1.75776 2.9876
head 8.19939 -1.01207 2.21449
rclavicle 1.92821e-014 -4.96962e-014
rhumerus -13.2698 14.1749 -73.3223
rradius 64.9507
rwrist -18.1199
rhand -14.6736 -27.5213
rfingers 7.12502
rthumb 11.4795 -57.1869
lclavicle 1.92821e-014 -4.96962e-014
lhumerus -24.1616 -3.51181 74.9869
lradius 47.4477
lwrist 14.0442
lhand -22.729 -25.2382
lfingers 7.12502
lthumb 3.7048 4.70938
rfemur -38.0125 -11.0398 -1.39141
rtibia 55.6903
rfoot -23.4663 -5.22198
rtoes -14.7781
lfemur -40.8392 16.4355 -11.5339
ltibia 43.9599
lfoot -5.22014 14.2409
ltoes -21.382
651
root 31.7071 15.1925 -2.73114 -164.196 -19.5104 171.846
lowerback 39.0103 0.708522 -0.861054
upperback 6.46571 -1.75813 -2.44862
thorax -11.9532 -1.54175 -1.27645
lowerneck -27.7155 -2.88772 -8.74016
upperneck 11.8033 -1.30242 2.59278
head 8.16517 -0.817761 2.07231
rclavicle 1.51076e-014 -1.49089e-014
rhumerus -13.6093 13.6186 -73.4622
rradius 64.8636
rwrist -17.8535
rhand -14.6103 -27.176
rfingers 7.12502
rthumb 11.5405 -56.8383
lclavicle 1.51076e-014 -1.49089e-014
lhumerus -23.3722 -4.74244 74.8564
lradius 48.3836
lwrist 14.6271
lhand -32.281 -23.3205
lfingers 7.12502
lthumb -5.52006 6.58762
rfemur -36.6686 -10.8324 -1.85737
rtibia 54.3062
rfoot -22.9552 -5.7839
rtoes -15.684
lfemur -41.3942 16.9213 -12.2265
ltibia 45.1753
lfoot -6.19482 13.6111
ltoes -19.4323
652
root 31.4944 15.208 -2.69717 -164.454 -19.8789 172.334
lowerback 39.2166 1.02184 -0.491873
upperback 6.59349 -1.24058 -2.43767
thorax -11.8687 -1.33081 -1.67939
lowerneck -28.1005 -2.54446 -7.68834
upperneck 12.16 -1.01918 1.69036
head 8.3214 -0.738932 1.63687
rclavicle 4.23411e-014 -5.00937e-014
rhumerus -13.991 12.3836 -73.4858
rradius 64.7659
rwrist -17.4271
rhand -14.7144 -27.1852
rfingers 7.12502
rthumb 11.4402 -56.8531
lclavicle 4.23411e-014 -5.00937e-014
lhumerus -22.2332 -6.79491 74.7735
lradius 49.5191
lwrist 16.3456
lhand -28.7398 -24.6345
lfingers 7.12502
lthumb -2.1004 5.33486
rfemur -35.3881 -10.5064 -2.28042
rtibia 52.8913
rfoot -22.4718 -6.1573
rtoes -15.7403
lfemur -41.9628 17.3825 -12.8172
ltibia 46.3241
lfoot -7.22682 12.8151
ltoes -18.0158
653
root 31.2831 15.2227 -2.6642 -164.628 -20.2656 172.955
lowerback 39.0264 1.03861 -0.604139
upperback 6.66898 -1.19853 -2.03966
thorax -11.7004 -1.30793 -1.21103
lowerneck -28.1127 -1.72427 -7.54647
upperneck 12.1985 0.162085 0.986256
head 8.2828 -0.259872 1.5441
rclavicle -2.8625e-014 1.80894e-014
rhumerus -13.8722 13.0101 -73.2867
rradius 64.6624
rwrist -17.1762
rhand -14.9207 -27.5881
rfingers 7.12502
rthumb 11.2413 -57.2669
lclavicle -2.8625e-014 1.80894e-014
lhumerus -21.8944 -6.62129 75.0068
lradius 50.9424
lwrist 17.566
lhand -27.536 -24.6773
lfingers 7.12502
lthumb -0.937773 5.30034
rfemur -34.2757 -10.1958 -2.48643
rtibia 51.4832
rfoot -21.8791 -6.82676
rtoes -16.4949
lfemur -42.5431 17.4815 -13.0589
ltibia 47.4472
lfoot -8.39002 11.9408
ltoes -17.1603
654
root 31.0693 15.2366 -2.63047 -164.721 -20.707 173.391
lowerback 38.9489 1.03299 -0.971949
upperback 6.66796 -1.28405 -1.63279
thorax -11.6581 -1.33209 -0.54398
lowerneck -28.0128 -0.713826 -7.40461
upperneck 12.0208 1.57006 0.341441
head 8.15343 0.338387 1.50106
rclavicle 2.00773e-014 -2.42517e-014
rhumerus -13.7167 13.9014 -73.0895
rradius 64.5719
rwrist -16.9548
rhand -15.2234 -27.9853
rfingers 7.12502
rthumb 10.9493 -57.6798
lclavicle 2.00773e-014 -2.42517e-014
lhumerus -21.4343 -5.58481 74.8275
lradius 52.4008
lwrist 20.1641
lhand -24.1619 -25.3809
lfingers 7.12502
lthumb 2.321 4.58624
rfemur -33.1461 -10.0129 -2.88413
rtibia 50.113
rfoot -21.2803 -7.48161
rtoes -16.7301
lfemur -43.1297 17.0918 -13.279
ltibia 48.6139
lfoot -9.55571 11.2517
ltoes -15.7869
655
root 30.8533 15.2376 -2.59718 -164.893 -21.0011 173.67
lowerback 39.012 1.14459 -1.41068
upperback 6.70858 -1.2958 -1.35423
thorax -11.6183 -1.33042 -0.00803473
lowerneck -27.8878 0.312106 -7.04756
upperneck 11.6986 2.93785 -0.488984
head 7.9906 0.912113 1.34974
rclavicle 7.95139e-015 -2.44505e-014
rhumerus -13.6005 14.5276 -72.9087
rradius 64.4901
rwrist -16.6754
rhand -15.2962 -27.8951
rfingers 7.12502
rthumb 10.8791 -57.5933
lclavicle 7.95139e-015 -2.44505e-014
lhumerus -21.0553 -6.27587 74.6276
lradius 53.9127
lwrist 20.4897
lhand -25.2065 -24.3695
lfingers 7.12502
lthumb 1.31217 5.60623
rfemur -31.9582 -9.8937 -3.49187
rtibia 48.7939
rfoot -20.6528 -7.75969
rtoes -16.4934
lfemur -43.6593 17.1798 -13.7964
ltibia 49.8175
lfoot -10.3931 10.4013
ltoes -14.3589
